# xmcd
#
# Track frame offsets:
#	150
#	18174
#	36182
#	64999
#	80098
#	104691
#	136365
#	160131
#	181104
#	202977
#	225505
#	246472
#	271296
#	295105
#
# Disc length: 4428 seconds
#
# Revision: 10
# Processed by: cddbd v1.5.2PL0 Copyright (c) Steve Scherf et al.
# Submitted via: Jack! The Knife 20 Magnifico
#
DISCID=c3114a0e
DTITLE=Litfiba - Stato Libero Di Litfiba [CD 1)
DYEAR=2010
DGENRE=Rock
TTITLE0=Sole Nero
TTITLE1=Barcollo
TTITLE2=Proibito
TTITLE3=Resta
TTITLE4=Cangaceiro
TTITLE5=Paname
TTITLE6=Bambino
TTITLE7=Il Volo
TTITLE8=Sparami
TTITLE9=Lulù e Marlene
TTITLE10=Dio
TTITLE11=Spirito
TTITLE12=Tex
TTITLE13=Ferito - Tex
EXTD=Litifba
EXTT0=Pelù, Renzulli
EXTT1=Pelù, Renzulli
EXTT2=Pelù, Renzulli
EXTT3=Pelù, Renzulli, Aiazzi, Maroccolo, De Palma
EXTT4=Pelù, Renzulli, Aiazzi, Maroccolo, De Palma
EXTT5=Pelù, Renzulli, Aiazzi, Maroccolo, De Palma
EXTT6=Pelù, Renzulli, Aiazzi, Maroccolo, De Palma
EXTT7=Pelù, Renzulli
EXTT8=Pelù, Renzulli
EXTT9=Pelù, Renzulli, Aiazzi, Maroccolo, De Palma
EXTT10=Pelù, Renzulli, Aiazzi, Maroccolo, De Palma
EXTT11=Pelù, Renzulli
EXTT12=Pelù, Renzulli, Aiazzi, Maroccolo, De Palma
EXTT13=Pelù, Renzulli, Aiazzi, Maroccolo, De Palma
PLAYORDER=
